<svg xmlns="http://www.w3.org/2000/svg" viewBox="0 0 202.41 55"><defs><style>.cls-1{fill:#f2f5f6;}.cls-2{opacity:0.7;}.cls-3{fill:#fff;}.cls-4{fill:#00b2ff;}</style></defs><g id="Layer_2" data-name="Layer 2"><g id="Layer_1-2" data-name="Layer 1"><path class="cls-1" d="M118.42,16.22l-.09-1.43h-3.26V28h3.47V19.27A1.87,1.87,0,0,1,120.45,18l1.15.09,0-3.41a2.41,2.41,0,0,0-1-.16A2.51,2.51,0,0,0,118.42,16.22Z"/><path class="cls-1" d="M128.22,25A1.93,1.93,0,0,1,128,24V17.39h1.77v-2.6H128V11.54h-3.46v3.25H123v2.6h1.52v7c0,2.56,1.16,3.83,3.38,3.83a5.4,5.4,0,0,0,1.91-.33l0-2.68a3.1,3.1,0,0,1-.82.08A1,1,0,0,1,128.22,25Z"/><path class="cls-1" d="M142.31,10.23h-4.7V28h4.61a6.59,6.59,0,0,0,5.09-2,7.81,7.81,0,0,0,1.85-5.51V17.62a7.71,7.71,0,0,0-1.89-5.42A6.48,6.48,0,0,0,142.31,10.23Zm3.26,10.58a5.59,5.59,0,0,1-.77,3.27,3,3,0,0,1-2.52.94H141.2V13.22h1.31a2.83,2.83,0,0,1,2.37,1,6.36,6.36,0,0,1,.69,3.47Z"/><path class="cls-1" d="M76.92,12.92a1.84,1.84,0,0,1,1.53.66,2.91,2.91,0,0,1,.53,1.9h3.58a5.85,5.85,0,0,0-.69-2.86,4.72,4.72,0,0,0-2-1.94A6,6,0,0,0,77,10a6,6,0,0,0-4,1.37A4.48,4.48,0,0,0,71.34,15a4.78,4.78,0,0,0,1.17,3.22,9.42,9.42,0,0,0,3.85,2.37,6.18,6.18,0,0,1,2,1.16,2.18,2.18,0,0,1,.57,1.64c0,1.32-.63,2-1.88,2a2.47,2.47,0,0,1-2-.7,3.38,3.38,0,0,1-.6-2.23H70.9a5.92,5.92,0,0,0,.8,3.11,5.32,5.32,0,0,0,2.22,2,6.93,6.93,0,0,0,3.14.7,5.83,5.83,0,0,0,4-1.3,4.58,4.58,0,0,0,1.48-3.63,5.12,5.12,0,0,0-1.19-3.48,8.73,8.73,0,0,0-3.77-2.3,7,7,0,0,1-2.07-1.22A1.88,1.88,0,0,1,74.93,15a2.05,2.05,0,0,1,.53-1.49A1.88,1.88,0,0,1,76.92,12.92Z"/><path class="cls-1" d="M156.56,14.55a4.74,4.74,0,0,0-3.92,1.69,7.55,7.55,0,0,0-1.37,4.83v1.05a6.4,6.4,0,0,0,1.49,4.54,5.42,5.42,0,0,0,4.15,1.58,6.37,6.37,0,0,0,2.63-.53,4.6,4.6,0,0,0,1.84-1.43L160,24.19a3.91,3.91,0,0,1-2.9,1.19,2.22,2.22,0,0,1-1.77-.68,3.6,3.6,0,0,1-.64-2.14h6.87v-1.7a7.58,7.58,0,0,0-1.28-4.71A4.47,4.47,0,0,0,156.56,14.55Zm1.64,5.59h-3.46a4.53,4.53,0,0,1,.48-2.08,1.44,1.44,0,0,1,1.32-.64,1.33,1.33,0,0,1,1.26.61,3.62,3.62,0,0,1,.4,1.79Z"/><path class="cls-1" d="M97.2,14.55A3.62,3.62,0,0,0,94,16.33a2.83,2.83,0,0,0-2.79-1.78A3.75,3.75,0,0,0,88.1,16L88,14.79H84.77V28h3.46V18.41a1.57,1.57,0,0,1,1.41-1,1.17,1.17,0,0,1,1.09.51,3.36,3.36,0,0,1,.3,1.64V28h3.46V19l0-.42c.32-.78.8-1.18,1.44-1.18a1.18,1.18,0,0,1,1.08.49,3.14,3.14,0,0,1,.31,1.63V28h3.46V19.35Q100.66,14.55,97.2,14.55Z"/><path class="cls-1" d="M112.58,18.91a4.22,4.22,0,0,0-1.2-3.23A4.68,4.68,0,0,0,108,14.55a5.14,5.14,0,0,0-3.48,1.19,3.8,3.8,0,0,0-1.37,3h3.45c0-1,.44-1.51,1.3-1.51a1.11,1.11,0,0,1,.89.36,2,2,0,0,1,.3,1.26v1.06h-1.05a5.82,5.82,0,0,0-3.82,1.16,4,4,0,0,0-1.32,3.21A3.91,3.91,0,0,0,104,27.15a3.74,3.74,0,0,0,2.76,1.09A2.92,2.92,0,0,0,109.29,27a4.74,4.74,0,0,0,.3,1h3.48v-.21a6.36,6.36,0,0,1-.49-2.67Zm-3.46,5.84a1.66,1.66,0,0,1-.59.55,1.9,1.9,0,0,1-1,.23c-.77,0-1.15-.48-1.15-1.46a2.17,2.17,0,0,1,.5-1.5,1.77,1.77,0,0,1,1.39-.56h.83Z"/><path class="cls-1" d="M176.48,9.54a1.84,1.84,0,0,0-1.37.52,1.78,1.78,0,0,0-.51,1.31,1.77,1.77,0,0,0,1.88,1.85,1.8,1.8,0,0,0,1.37-.53,1.82,1.82,0,0,0,.51-1.32,1.78,1.78,0,0,0-.51-1.31A1.82,1.82,0,0,0,176.48,9.54Z"/><path class="cls-1" d="M184.37,18.06a1.39,1.39,0,0,1,1.29-.64,1.25,1.25,0,0,1,1.17.59,3.45,3.45,0,0,1,.37,1.71h3.25a5.49,5.49,0,0,0-1.29-3.82,4.45,4.45,0,0,0-3.44-1.35,4.77,4.77,0,0,0-3.92,1.63,7.43,7.43,0,0,0-1.31,4.75V22a7.17,7.17,0,0,0,1.36,4.68,4.83,4.83,0,0,0,3.9,1.58,4.53,4.53,0,0,0,3.37-1.33,4.86,4.86,0,0,0,1.33-3.49H187.2c0,1.3-.53,2-1.53,2a1.58,1.58,0,0,1-1-.3,1.68,1.68,0,0,1-.53-.94,11.25,11.25,0,0,1-.16-2.26V20.54A5.49,5.49,0,0,1,184.37,18.06Z"/><path class="cls-1" d="M202.41,20.86a7.58,7.58,0,0,0-1.28-4.71,4.47,4.47,0,0,0-3.75-1.6,4.74,4.74,0,0,0-3.92,1.69,7.55,7.55,0,0,0-1.36,4.83v1.05a6.4,6.4,0,0,0,1.48,4.54,5.42,5.42,0,0,0,4.15,1.58,6.37,6.37,0,0,0,2.63-.53,4.6,4.6,0,0,0,1.84-1.43l-1.35-2.09a3.91,3.91,0,0,1-2.9,1.19,2.22,2.22,0,0,1-1.77-.68,3.6,3.6,0,0,1-.64-2.14h6.87ZM199,20.14h-3.46a4.53,4.53,0,0,1,.48-2.08,1.44,1.44,0,0,1,1.32-.64,1.33,1.33,0,0,1,1.26.61,3.62,3.62,0,0,1,.4,1.79Z"/><rect class="cls-1" x="174.76" y="14.79" width="3.47" height="13.21"/><polygon class="cls-1" points="167.71 23.12 166.03 14.79 162.42 14.79 166.06 28 169.35 28 172.98 14.79 169.38 14.79 167.71 23.12"/><g class="cls-2"><path class="cls-3" d="M106.79,40.42a2.17,2.17,0,0,0-.84-.65,3.09,3.09,0,0,0-2.34,0,2.57,2.57,0,0,0-.91.66,3,3,0,0,0-.6,1,3.9,3.9,0,0,0-.22,1.35v.24a3.46,3.46,0,0,0,.21,1.21,2.84,2.84,0,0,0,.61,1,2.72,2.72,0,0,0,1,.65,3.42,3.42,0,0,0,1.27.23A3.28,3.28,0,0,0,106,46a2.91,2.91,0,0,0,.8-.44,2.82,2.82,0,0,0,.53-.58l-.74-.72a2.1,2.1,0,0,1-.69.58A1.94,1.94,0,0,1,105,45a1.66,1.66,0,0,1-.72-.15,1.68,1.68,0,0,1-.54-.41,2,2,0,0,1-.34-.62,2.13,2.13,0,0,1-.1-.57h4.16v-.6a4.17,4.17,0,0,0-.18-1.26A2.49,2.49,0,0,0,106.79,40.42Zm-.72,1.82h-2.73a2.87,2.87,0,0,1,0-.31,2.36,2.36,0,0,1,.28-.68,1.31,1.31,0,0,1,.45-.43,1.33,1.33,0,0,1,.63-.15,1.3,1.3,0,0,1,.75.2,1.24,1.24,0,0,1,.42.54,2.1,2.1,0,0,1,.15.72Z"/><path class="cls-3" d="M121.74,40.42a2.17,2.17,0,0,0-.84-.65,2.94,2.94,0,0,0-1.19-.23,2.87,2.87,0,0,0-1.14.23,2.6,2.6,0,0,0-.92.66,3.36,3.36,0,0,0-.6,1,4.15,4.15,0,0,0-.22,1.35v.24a3.46,3.46,0,0,0,.21,1.21,3.18,3.18,0,0,0,.61,1,2.72,2.72,0,0,0,1,.65,3.42,3.42,0,0,0,1.27.23A3.28,3.28,0,0,0,121,46a2.77,2.77,0,0,0,.8-.44,3.21,3.21,0,0,0,.54-.58l-.75-.72a1.92,1.92,0,0,1-.69.58A1.94,1.94,0,0,1,120,45a1.66,1.66,0,0,1-.72-.15,1.68,1.68,0,0,1-.54-.41,2,2,0,0,1-.34-.62,2.61,2.61,0,0,1-.1-.57h4.16v-.6a4.52,4.52,0,0,0-.17-1.26A2.65,2.65,0,0,0,121.74,40.42ZM121,42.24h-2.73a1.55,1.55,0,0,1,.06-.31,2.11,2.11,0,0,1,.28-.68,1.23,1.23,0,0,1,.45-.43,1.28,1.28,0,0,1,.63-.15,1.12,1.12,0,0,1,1.16.74,1.72,1.72,0,0,1,.15.72Z"/><polygon class="cls-3" points="113.08 39.66 111.03 39.66 111.03 40.77 113.08 40.77 113.08 46 114.5 46 114.5 40.77 116.58 40.77 116.58 39.66 114.5 39.66 113.08 39.66"/><rect class="cls-3" x="99.05" y="39.66" width="1.41" height="6.34"/><polygon class="cls-3" points="128.59 39.66 127.03 39.66 125.81 41.76 124.6 39.66 123.05 39.66 124.97 42.77 122.97 46 124.53 46 125.82 43.81 127.11 46 128.66 46 126.67 42.77 128.59 39.66"/><path class="cls-3" d="M73,44l-1.38-4.33H70.07L72.32,46l-.21.56a1.55,1.55,0,0,1-.26.5.74.74,0,0,1-.38.27,1.66,1.66,0,0,1-.59.09H70.6v1.08l.32.07.36,0a1.8,1.8,0,0,0,.81-.16,1.54,1.54,0,0,0,.56-.4,2.49,2.49,0,0,0,.37-.52c.09-.19.17-.36.23-.51l2.54-7.31H74.29Z"/><polygon class="cls-3" points="82.62 39.66 82.26 39.66 80.38 44.29 78.5 39.66 78.13 39.66 77.27 39.66 76.72 39.66 76.72 46 78.13 46 78.13 41.74 79.9 46 80.86 46 82.62 41.75 82.62 46 84.04 46 84.04 39.66 83.49 39.66 82.62 39.66"/><polygon class="cls-3" points="89.56 42.31 87.08 42.31 87.08 39.66 85.67 39.66 85.67 46 87.08 46 87.08 43.42 89.56 43.42 89.56 46 90.97 46 90.97 39.66 89.56 39.66 89.56 42.31"/><path class="cls-3" d="M96.79,42a3.27,3.27,0,0,0-1.4-.27H94v-2H92.59V46h2.8a3.29,3.29,0,0,0,1.09-.16,2.45,2.45,0,0,0,.81-.46,1.91,1.91,0,0,0,.51-.69,2.2,2.2,0,0,0,.17-.86A2,2,0,0,0,96.79,42Zm-.36,2.4a.78.78,0,0,1-.36.38,1.32,1.32,0,0,1-.68.15H94V42.8h1.38a1.32,1.32,0,0,1,.68.15.86.86,0,0,1,.36.4,1.13,1.13,0,0,1,.12.51A1,1,0,0,1,96.43,44.35Z"/><polygon class="cls-3" points="156.84 46 158.25 46 158.25 40.78 161.02 40.78 161.02 39.66 156.84 39.66 156.84 46"/><path class="cls-3" d="M147.08,39.66H144l-.12,2.71c0,.34,0,.65-.07.91a5,5,0,0,1-.12.68,1.59,1.59,0,0,1-.19.47.81.81,0,0,1-.27.28.85.85,0,0,1-.37.11l-.22,0V46H143a2.45,2.45,0,0,0,.74-.11,1.52,1.52,0,0,0,.57-.35,1.74,1.74,0,0,0,.42-.61A4.38,4.38,0,0,0,145,44a8.35,8.35,0,0,0,.14-1.24l.11-2h1.8V46h1.41V39.66h-1.41Z"/><polygon class="cls-3" points="133.49 42.31 131.01 42.31 131.01 39.66 129.6 39.66 129.6 46 131.01 46 131.01 43.42 133.49 43.42 133.49 46 134.9 46 134.9 39.66 133.49 39.66 133.49 42.31"/><polygon class="cls-3" points="163.3 43.94 163.3 39.66 161.89 39.66 161.89 46 163.3 46 165.79 41.72 165.79 46 167.2 46 167.2 39.66 165.79 39.66 163.3 43.94"/><polygon class="cls-3" points="172.65 39.66 170.15 43.94 170.15 39.66 168.74 39.66 168.74 46 170.15 46 172.65 41.72 172.65 46 174.06 46 174.06 39.66 172.65 39.66"/><path class="cls-3" d="M154.84,40.47a2.73,2.73,0,0,0-.93-.68,3.23,3.23,0,0,0-2.49,0,2.6,2.6,0,0,0-.92.68,3,3,0,0,0-.58,1,4,4,0,0,0-.2,1.28v.13a4,4,0,0,0,.2,1.27,3.16,3.16,0,0,0,.58,1,2.76,2.76,0,0,0,.93.68,3.06,3.06,0,0,0,1.25.24,3,3,0,0,0,1.23-.24,2.76,2.76,0,0,0,.93-.68,3.16,3.16,0,0,0,.58-1,4,4,0,0,0,.2-1.27v-.13a4,4,0,0,0-.2-1.28A3,3,0,0,0,154.84,40.47Zm-.63,2.43a3.45,3.45,0,0,1-.1.81,2.24,2.24,0,0,1-.27.67,1.41,1.41,0,0,1-.49.45,1.3,1.3,0,0,1-.67.16,1.39,1.39,0,0,1-.7-.16,1.3,1.3,0,0,1-.48-.45,2,2,0,0,1-.28-.67,3.48,3.48,0,0,1-.08-.81v-.13a3.39,3.39,0,0,1,.08-.8,2.07,2.07,0,0,1,.28-.68,1.35,1.35,0,0,1,.47-.45,1.31,1.31,0,0,1,.69-.17,1.26,1.26,0,0,1,.69.17,1.38,1.38,0,0,1,.48.45,2.07,2.07,0,0,1,.28.68,3.37,3.37,0,0,1,.1.8Z"/><path class="cls-3" d="M141.26,40.47a2.67,2.67,0,0,0-.94-.68,2.86,2.86,0,0,0-1.24-.25,2.92,2.92,0,0,0-1.24.25,2.73,2.73,0,0,0-.93.68,3,3,0,0,0-.57,1,4,4,0,0,0-.2,1.28v.13a4,4,0,0,0,.2,1.27,3.16,3.16,0,0,0,.58,1,2.67,2.67,0,0,0,.93.68,3.32,3.32,0,0,0,2.48,0,2.87,2.87,0,0,0,.93-.68,3.35,3.35,0,0,0,.58-1,4,4,0,0,0,.2-1.27v-.13a4,4,0,0,0-.2-1.28A3.19,3.19,0,0,0,141.26,40.47Zm-.64,2.43a3.47,3.47,0,0,1-.09.81,2,2,0,0,1-.28.67,1.3,1.3,0,0,1-.48.45,1.55,1.55,0,0,1-1.37,0,1.3,1.3,0,0,1-.48-.45,2,2,0,0,1-.28-.67,3.47,3.47,0,0,1-.09-.81v-.13a3.38,3.38,0,0,1,.09-.8,2.07,2.07,0,0,1,.28-.68,1.35,1.35,0,0,1,.47-.45,1.31,1.31,0,0,1,.69-.17,1.26,1.26,0,0,1,.69.17,1.47,1.47,0,0,1,.48.45,2.07,2.07,0,0,1,.28.68,3.38,3.38,0,0,1,.09.8Z"/></g><path class="cls-4" d="M2.75,18.33A2.74,2.74,0,0,0,3.67,13V9.55L9.55,3.67h4.37a2.75,2.75,0,1,0,0-1.84H9.17a.91.91,0,0,0-.65.27L2.1,8.52a.91.91,0,0,0-.27.65V13a2.74,2.74,0,0,0,.92,5.33ZM16.5,1.83a.92.92,0,1,1-.92.92A.92.92,0,0,1,16.5,1.83ZM2.75,14.67a.92.92,0,1,1-.92.91A.92.92,0,0,1,2.75,14.67Z"/><path class="cls-4" d="M31.55,11.92h2.54a2.75,2.75,0,1,0,0-1.84H31.17a.91.91,0,0,0-.65.27L26.85,14a.91.91,0,0,0-.27.65v5.67a2.75,2.75,0,1,0,1.84,0V15.05Zm5.12-1.84a.92.92,0,1,1-.92.92A.92.92,0,0,1,36.67,10.08ZM27.5,23.83a.92.92,0,1,1,.92-.91A.92.92,0,0,1,27.5,23.83Z"/><path class="cls-4" d="M19.52,14.93a1,1,0,0,0-.27.65V18.5a2.76,2.76,0,1,0,1.83,0V16L31.82,5.22A2.63,2.63,0,0,0,33,5.5a2.75,2.75,0,0,0,2.58-1.83H38.5V5.5a.93.93,0,0,0,.27.65l3.67,3.67a2.75,2.75,0,1,0,2.48-1.57,2.6,2.6,0,0,0-1.18.28L40.33,5.12V2.75a.92.92,0,0,0-.91-.92H35.58a2.74,2.74,0,0,0-5.33.92,2.63,2.63,0,0,0,.28,1.18ZM20.17,22a.92.92,0,1,1,.91-.92A.92.92,0,0,1,20.17,22ZM44.92,10.08A.92.92,0,1,1,44,11,.92.92,0,0,1,44.92,10.08ZM33,1.83a.92.92,0,1,1-.92.92A.92.92,0,0,1,33,1.83Z"/><path class="cls-4" d="M11,44.17V42a2.74,2.74,0,0,0,0-5.17V35.75a.93.93,0,0,0-.27-.65L3.67,28v-.71A2.75,2.75,0,0,0,5.5,24.75a2.63,2.63,0,0,0-.28-1.18L8.9,19.9a.93.93,0,0,0,.27-.65V13.58a2.75,2.75,0,1,0-1.84,0v5.29l-3.4,3.41A2.63,2.63,0,0,0,2.75,22a2.74,2.74,0,0,0-.92,5.33v1.09a.91.91,0,0,0,.27.64l7.07,7.07v.7a2.74,2.74,0,0,0,0,5.17v2.17a2.75,2.75,0,1,0,1.83,0ZM8.25,10.08a.92.92,0,1,1-.92.92A.92.92,0,0,1,8.25,10.08ZM2.75,25.67a.92.92,0,1,1,.92-.92A.92.92,0,0,1,2.75,25.67ZM10.08,38.5a.92.92,0,1,1-.91.92A.92.92,0,0,1,10.08,38.5Zm0,9.17a.92.92,0,1,1,.92-.92A.92.92,0,0,1,10.08,47.67Z"/><path class="cls-4" d="M13.1,13.1a.93.93,0,0,0-.27.65v8.79l-1.57,1.57a2.73,2.73,0,0,0-1.18-.28,2.75,2.75,0,1,0,2.75,2.75,2.68,2.68,0,0,0-.27-1.17l1.84-1.85a.91.91,0,0,0,.27-.64V14.13l8.9-8.91a2.63,2.63,0,0,0,1.18.28A2.75,2.75,0,1,0,22,2.75a2.63,2.63,0,0,0,.28,1.18Zm-3,14.4a.92.92,0,1,1,.92-.92A.92.92,0,0,1,10.08,27.5ZM24.75,1.83a.92.92,0,1,1-.92.92A.92.92,0,0,1,24.75,1.83Z"/><path class="cls-4" d="M54.73,11.27,47.39,3.93a2.77,2.77,0,0,0,.28-1.18A2.75,2.75,0,1,0,44.92,5.5a2.56,2.56,0,0,0,1.17-.28l7.08,7.08v7.49L51,22h-9.7a.93.93,0,0,0-.65.27L35.37,27.5H24.58a2.76,2.76,0,1,0,0,1.83H35.75a.89.89,0,0,0,.65-.27l5.23-5.23h9.7a.88.88,0,0,0,.65-.27l2.75-2.75a.91.91,0,0,0,.27-.64V11.92A.91.91,0,0,0,54.73,11.27Zm-9.81-7.6a.92.92,0,1,1,.91-.92A.92.92,0,0,1,44.92,3.67ZM22,29.33a.92.92,0,1,1,.92-.91A.92.92,0,0,1,22,29.33Z"/><path class="cls-4" d="M44,25.67a2.75,2.75,0,0,0-2.75,2.75,2.56,2.56,0,0,0,.28,1.17L38.12,33H32.83a2.73,2.73,0,0,0-5.16,0H18.16a2.74,2.74,0,1,0-3.49,3.5V49.67a2.75,2.75,0,1,0,1.83,0V36.5a2.72,2.72,0,0,0,1.66-1.67h9.51a2.73,2.73,0,0,0,5.16,0H38.5a.89.89,0,0,0,.65-.27l3.67-3.67A2.74,2.74,0,1,0,44,25.67ZM16.5,52.25a.92.92,0,1,1-.92-.92A.92.92,0,0,1,16.5,52.25Zm-.92-17.42a.92.92,0,1,1,.92-.91A.91.91,0,0,1,15.58,34.83Zm14.67,0a.92.92,0,1,1,.92-.91A.92.92,0,0,1,30.25,34.83ZM44,29.33a.92.92,0,1,1,.92-.91A.92.92,0,0,1,44,29.33Z"/><path class="cls-4" d="M33.92,20.17a2.75,2.75,0,0,0,2.58-1.84H46a2.75,2.75,0,1,0,0-1.83H36.5a2.75,2.75,0,1,0-2.58,3.67ZM48.58,16.5a.92.92,0,1,1-.91.92A.92.92,0,0,1,48.58,16.5Zm-14.66,0a.92.92,0,1,1-.92.92A.92.92,0,0,1,33.92,16.5Z"/></g></g></svg>