<svg width="35" height="35" viewBox="0 0 35 35" fill="none" xmlns="http://www.w3.org/2000/svg">
<path d="M21.5838 9.33319C22.3433 9.33319 22.985 9.8226 23.2265 10.4998H29.2745C29.516 9.8226 30.1577 9.33319 30.9172 9.33319C31.882 9.33319 32.6672 10.1183 32.6672 11.0832C32.6672 12.048 31.882 12.8331 30.9172 12.8331C30.1577 12.8331 29.516 12.3437 29.2745 11.6665H23.2259C22.9844 12.3437 22.3427 12.8331 21.5832 12.8331C20.6184 12.8331 19.8332 12.048 19.8332 11.0832C19.8332 10.1183 20.619 9.33319 21.5838 9.33319ZM30.9172 11.6665C31.2386 11.6665 31.5005 11.4052 31.5005 11.0832C31.5005 10.7612 31.2386 10.4998 30.9172 10.4998C30.5957 10.4998 30.3338 10.7612 30.3338 11.0832C30.3338 11.4052 30.5957 11.6665 30.9172 11.6665ZM21.5838 11.6665C21.9052 11.6665 22.1672 11.4052 22.1672 11.0832C22.1672 10.7612 21.9052 10.4998 21.5838 10.4998C21.2624 10.4998 21.0005 10.7612 21.0005 11.0832C21.0005 11.4052 21.2624 11.6665 21.5838 11.6665Z" fill="#00B2FF"/>
<path d="M16.9175 12.9405V9.33319C16.9175 9.17802 16.9787 9.02986 17.0884 8.92078L19.4217 6.58748C19.5308 6.47782 19.6796 6.41657 19.8341 6.41657H21.6915C21.933 5.73933 22.5746 5.24992 23.3341 5.24992C24.299 5.24992 25.0841 6.03508 25.0841 6.99989C25.0841 7.96471 24.299 8.74987 23.3341 8.74987C22.5746 8.74987 21.933 8.26046 21.6915 7.58322H20.0756L18.0841 9.57468V12.9405C18.7614 13.182 19.2508 13.8236 19.2508 14.5831C19.2508 15.5479 18.4656 16.3331 17.5008 16.3331C16.536 16.3331 15.7508 15.5479 15.7508 14.5831C15.7508 13.8236 16.2402 13.182 16.9175 12.9405ZM23.3341 7.58322C23.6556 7.58322 23.9175 7.32189 23.9175 6.99989C23.9175 6.6779 23.6556 6.41657 23.3341 6.41657C23.0127 6.41657 22.7508 6.6779 22.7508 6.99989C22.7508 7.32189 23.0127 7.58322 23.3341 7.58322ZM17.5008 15.1664C17.8222 15.1664 18.0841 14.9051 18.0841 14.5831C18.0841 14.2611 17.8222 13.9998 17.5008 13.9998C17.1794 13.9998 16.9175 14.2611 16.9175 14.5831C16.9175 14.9051 17.1794 15.1664 17.5008 15.1664Z" fill="#00B2FF"/>
<path d="M6.41732 15.1664C6.68682 15.1664 6.93882 15.2323 7.1669 15.342L8.16732 14.3416V8.74986C8.16732 8.59469 8.22857 8.44653 8.33823 8.33745L14.1762 2.49954C14.0666 2.27146 14.0007 2.01947 14.0007 1.74997C14.0007 0.785154 14.7858 0 15.7507 0C16.7155 0 17.5007 0.785154 17.5007 1.74997C17.5007 2.71479 16.7155 3.49994 15.7507 3.49994C15.4812 3.49994 15.2292 3.43403 15.0011 3.32436L9.33398 8.99135V14.5831C9.33398 14.7383 9.27273 14.8864 9.16307 14.9955L7.99173 16.1668C8.1014 16.3949 8.16732 16.6469 8.16732 16.9164C8.16732 17.8812 7.38215 18.6664 6.41732 18.6664C5.45248 18.6664 4.66732 17.8812 4.66732 16.9164C4.66732 15.9516 5.45248 15.1664 6.41732 15.1664ZM15.7507 2.33329C16.0721 2.33329 16.334 2.07197 16.334 1.74997C16.334 1.42798 16.0721 1.16665 15.7507 1.16665C15.4292 1.16665 15.1673 1.42798 15.1673 1.74997C15.1673 2.07197 15.4292 2.33329 15.7507 2.33329ZM6.41732 17.4997C6.73873 17.4997 7.00065 17.2384 7.00065 16.9164C7.00065 16.5944 6.73873 16.3331 6.41732 16.3331C6.0959 16.3331 5.83398 16.5944 5.83398 16.9164C5.83398 17.2384 6.0959 17.4997 6.41732 17.4997Z" fill="#00B2FF"/>
<path d="M1.16732 8.27386V5.83324C1.16732 5.67807 1.22857 5.52991 1.33823 5.42083L5.42157 1.33756C5.53065 1.2279 5.6794 1.16665 5.83398 1.16665H8.85798C9.09948 0.489408 9.74115 0 10.5007 0C11.4655 0 12.2507 0.785154 12.2507 1.74997C12.2507 2.71479 11.4655 3.49994 10.5007 3.49994C9.74115 3.49994 9.09948 3.01053 8.85798 2.33329H6.07548L2.33398 6.07473V8.27386C3.01123 8.51536 3.50065 9.15701 3.50065 9.9165C3.50065 10.8813 2.71548 11.6665 1.75065 11.6665C0.785817 11.6665 0.000650406 10.8813 0.000650406 9.9165C0.000650406 9.15701 0.490067 8.51536 1.16732 8.27386ZM10.5007 2.33329C10.8221 2.33329 11.084 2.07197 11.084 1.74997C11.084 1.42798 10.8221 1.16665 10.5007 1.16665C10.1792 1.16665 9.91732 1.42798 9.91732 1.74997C9.91732 2.07197 10.1792 2.33329 10.5007 2.33329ZM1.75065 10.4998C2.07207 10.4998 2.33398 10.2385 2.33398 9.9165C2.33398 9.59451 2.07207 9.33318 1.75065 9.33318C1.42923 9.33318 1.16732 9.59451 1.16732 9.9165C1.16732 10.2385 1.42923 10.4998 1.75065 10.4998Z" fill="#00B2FF"/>
<path d="M9.3334 31.6074V23.2256C8.65674 22.9841 8.16732 22.3425 8.16732 21.583C8.16732 20.6182 8.95249 19.833 9.91732 19.833C10.6768 19.833 11.3185 20.3224 11.56 20.9997H17.608C17.8495 20.3224 18.4912 19.833 19.2507 19.833C20.0102 19.833 20.6518 20.3224 20.8933 20.9997H24.2592L26.4262 18.8326C26.3166 18.6045 26.2507 18.3525 26.2507 18.083C26.2507 17.1182 27.0358 16.3331 28.0007 16.3331C28.9655 16.3331 29.7507 17.1182 29.7507 18.083C29.7507 19.0479 28.9655 19.833 28.0007 19.833C27.7312 19.833 27.4792 19.7671 27.2511 19.6574L24.9131 21.9954C24.804 22.1051 24.6552 22.1663 24.5007 22.1663H20.8933C20.6518 22.8435 20.0102 23.333 19.2507 23.333C18.4912 23.333 17.8495 22.8435 17.608 22.1663H11.5594C11.3832 22.6604 10.9942 23.0495 10.5001 23.2256V31.6074C11.1773 31.8489 11.6667 32.4906 11.6667 33.25C11.6667 34.2149 10.8816 35 9.91674 35C8.9519 35 8.16674 34.2149 8.16674 33.25C8.16674 32.4906 8.65615 31.8489 9.3334 31.6074ZM28.0007 18.6664C28.3221 18.6664 28.584 18.405 28.584 18.083C28.584 17.7611 28.3221 17.4997 28.0007 17.4997C27.6792 17.4997 27.4173 17.7611 27.4173 18.083C27.4173 18.405 27.6792 18.6664 28.0007 18.6664ZM19.2507 22.1663C19.5721 22.1663 19.834 21.905 19.834 21.583C19.834 21.261 19.5721 20.9997 19.2507 20.9997C18.9292 20.9997 18.6673 21.261 18.6673 21.583C18.6673 21.905 18.9292 22.1663 19.2507 22.1663ZM9.91732 33.8328C10.2387 33.8328 10.5007 33.5715 10.5007 33.2495C10.5007 32.9275 10.2387 32.6661 9.91732 32.6661C9.5959 32.6661 9.33399 32.9275 9.33399 33.2495C9.33399 33.5715 9.5959 33.8328 9.91732 33.8328ZM9.91732 22.1663C10.2387 22.1663 10.5007 21.905 10.5007 21.583C10.5007 21.261 10.2387 20.9997 9.91732 20.9997C9.5959 20.9997 9.33399 21.261 9.33399 21.583C9.33399 21.905 9.5959 22.1663 9.91732 22.1663Z" fill="#00B2FF"/>
<path d="M12.2508 11.7738V9.9165C12.2508 9.76134 12.3121 9.61317 12.4217 9.50409L19.4264 2.49954C19.3167 2.27146 19.2508 2.01947 19.2508 1.74997C19.2508 0.785154 20.036 0 21.0008 0C21.7603 0 22.402 0.489408 22.6435 1.16665H25.0841C25.4061 1.16665 25.6675 1.42739 25.6675 1.74997V3.25845L27.8346 5.42549C28.0626 5.31583 28.3146 5.24991 28.5841 5.24991C29.549 5.24991 30.3341 6.03507 30.3341 6.99988C30.3341 7.9647 29.549 8.74985 28.5841 8.74985C27.6193 8.74985 26.8341 7.9647 26.8341 6.99988C26.8341 6.73039 26.9001 6.47839 27.0097 6.25031L24.6717 3.91235C24.5621 3.80327 24.5008 3.65511 24.5008 3.49994V2.33329H22.6435C22.402 3.01053 21.7603 3.49994 21.0008 3.49994C20.7313 3.49994 20.4793 3.43403 20.2512 3.32436L13.4175 10.158V11.7738C14.0947 12.0153 14.5841 12.657 14.5841 13.4164C14.5841 14.3813 13.799 15.1664 12.8341 15.1664C11.8693 15.1664 11.0841 14.3813 11.0841 13.4164C11.0841 12.657 11.5736 12.0153 12.2508 11.7738ZM28.5841 7.58321C28.9056 7.58321 29.1675 7.32188 29.1675 6.99988C29.1675 6.67789 28.9056 6.41656 28.5841 6.41656C28.2627 6.41656 28.0008 6.67789 28.0008 6.99988C28.0008 7.32188 28.2627 7.58321 28.5841 7.58321ZM21.0008 2.33329C21.3222 2.33329 21.5841 2.07197 21.5841 1.74997C21.5841 1.42798 21.3222 1.16665 21.0008 1.16665C20.6794 1.16665 20.4175 1.42798 20.4175 1.74997C20.4175 2.07197 20.6794 2.33329 21.0008 2.33329ZM12.8341 13.9998C13.1556 13.9998 13.4175 13.7384 13.4175 13.4164C13.4175 13.0944 13.1556 12.8331 12.8341 12.8331C12.5127 12.8331 12.2508 13.0944 12.2508 13.4164C12.2508 13.7384 12.5127 13.9998 12.8341 13.9998Z" fill="#00B2FF"/>
<path d="M14.0006 16.3331C14.7601 16.3331 15.4018 16.8225 15.6433 17.4997H22.5091L25.8382 14.1707C25.9473 14.061 26.0961 13.9998 26.2506 13.9998H32.4258L33.834 12.5916V7.8247L29.3336 3.32436C29.1055 3.43403 28.8535 3.49994 28.584 3.49994C27.6191 3.49994 26.834 2.71479 26.834 1.74997C26.834 0.785154 27.6191 0 28.584 0C29.5488 0 30.334 0.785154 30.334 1.74997C30.334 2.01947 30.2681 2.27146 30.1584 2.49954L34.8297 7.1708C34.9394 7.27988 35.0006 7.42804 35.0006 7.58321V12.8331C35.0006 12.9883 34.9394 13.1364 34.8297 13.2455L33.0797 14.9955C32.9707 15.1052 32.8219 15.1664 32.6673 15.1664H26.4921L23.1631 18.4954C23.054 18.6051 22.9052 18.6664 22.7506 18.6664H15.6433C15.4018 19.3436 14.7601 19.833 14.0006 19.833C13.0358 19.833 12.2506 19.0478 12.2506 18.083C12.2506 17.1182 13.0358 16.3331 14.0006 16.3331ZM28.584 1.16665C28.2626 1.16665 28.0006 1.42798 28.0006 1.74997C28.0006 2.07197 28.2626 2.33329 28.584 2.33329C28.9054 2.33329 29.1673 2.07197 29.1673 1.74997C29.1673 1.42798 28.9054 1.16665 28.584 1.16665ZM14.0006 18.6664C14.3221 18.6664 14.584 18.405 14.584 18.083C14.584 17.761 14.3221 17.4997 14.0006 17.4997C13.6792 17.4997 13.4173 17.761 13.4173 18.083C13.4173 18.405 13.6792 18.6664 14.0006 18.6664Z" fill="#00B2FF"/>
<path d="M1.75049 13.9998C2.01999 13.9998 2.27199 14.0657 2.50007 14.1754L4.66715 12.0083V8.64253C3.9899 8.40104 3.50049 7.75938 3.50049 6.99989C3.50049 6.03508 4.28565 5.24992 5.25049 5.24992C6.21532 5.24992 7.00049 6.03508 7.00049 6.99989C7.00049 7.75938 6.51107 8.40104 5.83382 8.64253V12.2498C5.83382 12.405 5.77257 12.5531 5.6629 12.6622L3.32491 15.0002C3.43457 15.2283 3.50049 15.4803 3.50049 15.7497C3.50049 16.5092 3.01107 17.1509 2.33382 17.3924V17.8415L6.82957 22.3372C6.93924 22.4463 7.00049 22.5945 7.00049 22.7496V23.4403C7.67774 23.6818 8.16715 24.3234 8.16715 25.0829C8.16715 25.8424 7.67774 26.4841 7.00049 26.7256V28.1075C7.67774 28.349 8.16715 28.9906 8.16715 29.7501C8.16715 30.7149 7.38199 31.5001 6.41715 31.5001C5.45232 31.5001 4.66715 30.7149 4.66715 29.7501C4.66715 28.9906 5.15657 28.349 5.83382 28.1075V26.7256C5.15657 26.4841 4.66715 25.8424 4.66715 25.0829C4.66715 24.3234 5.15657 23.6818 5.83382 23.4403V22.9911L1.33807 18.4955C1.2284 18.3864 1.16715 18.2382 1.16715 18.083V17.3924C0.489904 17.1509 0.000488281 16.5092 0.000488281 15.7497C0.000488281 14.7849 0.785655 13.9998 1.75049 13.9998ZM5.25049 7.58322C5.5719 7.58322 5.83382 7.32189 5.83382 6.99989C5.83382 6.6779 5.5719 6.41657 5.25049 6.41657C4.92907 6.41657 4.66715 6.6779 4.66715 6.99989C4.66715 7.32189 4.92907 7.58322 5.25049 7.58322ZM6.41715 30.3328C6.73857 30.3328 7.00049 30.0715 7.00049 29.7495C7.00049 29.4275 6.73857 29.1662 6.41715 29.1662C6.09574 29.1662 5.83382 29.4275 5.83382 29.7495C5.83382 30.0715 6.09574 30.3328 6.41715 30.3328ZM6.41715 25.6663C6.73857 25.6663 7.00049 25.4049 7.00049 25.0829C7.00049 24.7609 6.73857 24.4996 6.41715 24.4996C6.09574 24.4996 5.83382 24.7609 5.83382 25.0829C5.83382 25.4049 6.09574 25.6663 6.41715 25.6663ZM1.75049 16.3331C2.0719 16.3331 2.33382 16.0717 2.33382 15.7497C2.33382 15.4278 2.0719 15.1664 1.75049 15.1664C1.42907 15.1664 1.16715 15.4278 1.16715 15.7497C1.16715 16.0717 1.42907 16.3331 1.75049 16.3331Z" fill="#00B2FF"/>
</svg>
